<svg width="252" height="28" viewBox="0 0 252 28" fill="none" xmlns="http://www.w3.org/2000/svg">
<g clip-path="url(#clip0_7467_28790)">
<path fill-rule="evenodd" clip-rule="evenodd" d="M32.0865 0.460955C34.0188 0.460955 35.815 0.815042 37.5295 1.49598C39.2441 2.23139 40.6865 3.18471 41.9384 4.38314C43.1902 5.60882 44.1972 7.0524 44.9048 8.68666C45.6395 10.3209 45.9661 12.1186 45.9661 13.9979C45.9661 15.8773 45.6124 17.6477 44.9048 19.3092C44.17 20.9434 43.1902 22.387 41.9384 23.6127C40.6865 24.8384 39.2441 25.7916 37.5295 26.4726C35.815 27.208 34.0188 27.5349 32.0865 27.5349H21.7176V0.460938L32.0865 0.460955ZM35.5156 21.7609C36.5497 21.3522 37.4206 20.7258 38.1555 19.9631C38.8902 19.2005 39.4073 18.2744 39.8428 17.2666C40.2509 16.2316 40.4415 15.1694 40.4415 13.9982C40.4415 12.8269 40.251 11.7103 39.8428 10.6753C39.4345 9.64014 38.8902 8.76864 38.1555 8.00595C37.4206 7.24333 36.5497 6.6441 35.5156 6.18104C34.4814 5.77249 33.3383 5.52734 32.0865 5.52734H27.2422V22.4417H32.0865C33.3383 22.4417 34.4814 22.2238 35.5156 21.7608V21.7609Z" fill="white"/>
<path d="M83.9043 0.460938V27.5076H78.3798V0.460938H83.9043Z" fill="white"/>
<path d="M109.649 16.9144C108.833 20.0195 106.601 22.6615 102.192 22.6615C96.4227 22.6615 94.5996 18.1946 94.5996 14C94.5996 9.80544 96.4499 5.33852 102.192 5.33852C106.601 5.33852 108.833 7.95324 109.649 11.0856H115.309C114.193 4.43968 109.296 0 102.41 0C94.5723 0 88.8572 5.74709 88.8572 14C88.8572 22.2257 94.5451 28 102.41 28C109.296 28 114.193 23.5875 115.309 16.9416H109.649V16.9144Z" fill="white"/>
<path d="M154.825 0.460938V27.5076H149.301V0.460938H154.825Z" fill="white"/>
<path d="M125.461 0.460938V11.4377H137.598V0.460938H143.15V27.5076H137.625V16.2859H125.461V27.5076H119.936V0.460938H125.461Z" fill="white"/>
<path fill-rule="evenodd" clip-rule="evenodd" d="M8.27338 0C3.70123 0 0 3.70428 0 8.28014C0 12.856 3.70124 16.5603 8.27338 16.5603C12.8455 16.5603 16.5467 12.856 16.5467 8.28014C16.5195 3.70428 12.8182 0 8.27338 0ZM8.27345 11.657C6.39563 11.657 4.87157 10.1317 4.87157 8.2523C4.87157 6.37293 6.39563 4.84766 8.27345 4.84766C10.1512 4.84766 11.6753 6.37295 11.6753 8.2523C11.6481 10.1317 10.1241 11.657 8.27345 11.657Z" fill="white"/>
<path fill-rule="evenodd" clip-rule="evenodd" d="M68.2553 27.5076H74.1064L64.9078 0.460938H61.9142H59.4105H56.4168L47.1093 27.5076H52.9605L54.7839 21.9512H66.4322L68.2553 27.5076ZM56.3623 17.2112L60.6351 4.27344L64.8807 17.2112H56.3623Z" fill="white"/>
<path d="M167.575 9.49017L171.476 0.325195H173.322L177.221 9.49017H175.128L174.297 7.4492H170.448L169.616 9.49017H167.575ZM171.163 5.68119H173.581L172.373 2.7302L171.163 5.68119Z" fill="white"/>
<path d="M178.457 1.755V0H180.537V1.755H178.457ZM178.509 9.48998V2.522H180.485V9.48998H178.509Z" fill="white"/>
<path d="M182.341 9.49016V2.52219H184.317V3.92618C184.767 2.86018 185.509 2.34885 186.54 2.39219V4.45919H186.436C185.76 4.45919 185.236 4.66719 184.863 5.08319C184.499 5.49052 184.317 6.10152 184.317 6.91619V9.49016H182.341Z" fill="white"/>
<path d="M195.117 9.61979C193.626 9.61979 192.339 9.13445 191.256 8.16379L192.439 6.74676C193.331 7.48344 194.238 7.85174 195.156 7.85174C195.564 7.85174 195.884 7.77376 196.118 7.61776C196.352 7.46177 196.469 7.2451 196.469 6.96777C196.469 6.70777 196.348 6.49976 196.105 6.34377C195.862 6.1791 195.372 6.00143 194.636 5.81077C194.116 5.68076 193.695 5.5551 193.375 5.43376C193.055 5.30377 192.747 5.13476 192.452 4.92676C192.166 4.71877 191.954 4.45877 191.815 4.14677C191.685 3.8261 191.62 3.44477 191.62 3.00277C191.62 2.17943 191.914 1.51643 192.504 1.01376C193.102 0.5111 193.869 0.259766 194.805 0.259766C196.096 0.259766 197.223 0.645432 198.185 1.41677L197.145 2.92476C196.287 2.32677 195.498 2.02777 194.779 2.02777C194.406 2.02777 194.116 2.10576 193.908 2.26177C193.709 2.4091 193.609 2.6041 193.609 2.84677C193.609 3.14144 193.734 3.36243 193.986 3.50977C194.238 3.6571 194.766 3.83476 195.572 4.04276C196.56 4.30277 197.288 4.63643 197.756 5.04376C198.224 5.4511 198.458 6.0361 198.458 6.79877C198.458 7.68276 198.151 8.37612 197.535 8.8788C196.929 9.37277 196.122 9.61979 195.117 9.61979Z" fill="white"/>
<path d="M206.097 8.59306C205.378 9.29508 204.481 9.64609 203.407 9.64609C202.332 9.64609 201.435 9.29943 200.716 8.60612C200.005 7.9041 199.649 7.04175 199.649 6.01909C199.649 5.00509 200.009 4.14709 200.728 3.44509C201.456 2.74309 202.358 2.39209 203.432 2.39209C204.507 2.39209 205.399 2.74309 206.11 3.44509C206.83 4.13842 207.189 4.99642 207.189 6.01909C207.189 7.03309 206.825 7.89111 206.097 8.59306ZM203.432 7.94307C203.978 7.94307 204.416 7.76109 204.745 7.39709C205.075 7.02443 205.239 6.56509 205.239 6.01909C205.239 5.49042 205.066 5.03975 204.72 4.66709C204.381 4.28575 203.943 4.09509 203.407 4.09509C202.861 4.09509 202.423 4.28142 202.093 4.65409C201.764 5.01809 201.599 5.47309 201.599 6.01909C201.599 6.54776 201.769 7.00276 202.106 7.38409C202.453 7.75676 202.895 7.94307 203.432 7.94307Z" fill="white"/>
<path d="M208.711 9.48998V0H210.688V9.48998H208.711Z" fill="white"/>
<path d="M214.857 9.62C214.112 9.62 213.531 9.39032 213.115 8.93096C212.699 8.47161 212.491 7.83896 212.491 7.03297V2.52197H214.467V6.40897C214.467 6.8683 214.571 7.21931 214.779 7.46197C214.987 7.70464 215.282 7.82597 215.663 7.82597C216.044 7.82597 216.344 7.70464 216.56 7.46197C216.785 7.21931 216.898 6.8683 216.898 6.40897V2.52197H218.874V9.48995H216.898V8.50194C216.317 9.24728 215.637 9.62 214.857 9.62Z" fill="white"/>
<path d="M222.996 9.60724C222.346 9.60724 221.843 9.45122 221.488 9.13918C221.141 8.81858 220.967 8.27686 220.967 7.51421V4.21221H220.136V2.52221H220.967V0.741211H222.944V2.52221H224.582V4.21221H222.944V7.18921C222.944 7.63988 223.156 7.86518 223.581 7.86518C223.928 7.86518 224.252 7.78289 224.555 7.61821V9.2042C224.105 9.47285 223.585 9.60724 222.996 9.60724Z" fill="white"/>
<path d="M226.077 1.755V0H228.157V1.755H226.077ZM226.13 9.48998V2.522H228.105V9.48998H226.13Z" fill="white"/>
<path d="M236.071 8.59306C235.352 9.29508 234.455 9.64609 233.38 9.64609C232.305 9.64609 231.408 9.29943 230.689 8.60612C229.978 7.9041 229.623 7.04175 229.623 6.01909C229.623 5.00509 229.983 4.14709 230.702 3.44509C231.43 2.74309 232.332 2.39209 233.406 2.39209C234.481 2.39209 235.373 2.74309 236.084 3.44509C236.803 4.13842 237.163 4.99642 237.163 6.01909C237.163 7.03309 236.799 7.89111 236.071 8.59306ZM233.406 7.94307C233.952 7.94307 234.39 7.76109 234.719 7.39709C235.048 7.02443 235.213 6.56509 235.213 6.01909C235.213 5.49042 235.04 5.03975 234.693 4.66709C234.355 4.28575 233.917 4.09509 233.38 4.09509C232.834 4.09509 232.396 4.28142 232.067 4.65409C231.737 5.01809 231.573 5.47309 231.573 6.01909C231.573 6.54776 231.742 7.00276 232.08 7.38409C232.426 7.75676 232.869 7.94307 233.406 7.94307Z" fill="white"/>
<path d="M238.594 9.49007V2.52209H240.57V3.51009C241.151 2.76475 241.831 2.39209 242.611 2.39209C243.357 2.39209 243.937 2.62175 244.353 3.08109C244.769 3.54042 244.977 4.17309 244.977 4.97909V9.49007H243.001V5.60309C243.001 5.14376 242.897 4.79276 242.689 4.55009C242.481 4.30742 242.186 4.18609 241.805 4.18609C241.424 4.18609 241.12 4.30742 240.895 4.55009C240.678 4.79276 240.57 5.14376 240.57 5.60309V9.49007H238.594Z" fill="white"/>
<path d="M249.138 9.61999C248.036 9.61999 247.04 9.26898 246.147 8.56696L246.993 7.26697C247.755 7.82161 248.488 8.09897 249.189 8.09897C249.744 8.09897 250.021 7.91697 250.021 7.55297C250.021 7.50964 250.013 7.4663 249.996 7.42297C249.987 7.37963 249.965 7.34063 249.93 7.30597C249.896 7.2713 249.856 7.24097 249.814 7.21497C249.779 7.1803 249.727 7.14997 249.657 7.12397C249.597 7.0893 249.541 7.0633 249.489 7.04596C249.445 7.01996 249.38 6.99397 249.293 6.96797C249.207 6.9333 249.133 6.9073 249.072 6.88997C249.012 6.87264 248.929 6.85097 248.825 6.82497C248.722 6.7903 248.639 6.7643 248.579 6.74696C248.284 6.6603 248.033 6.57364 247.824 6.48697C247.625 6.39164 247.413 6.26597 247.187 6.10996C246.962 5.9453 246.789 5.74163 246.668 5.49896C246.555 5.24763 246.499 4.9573 246.499 4.62797C246.499 3.9433 246.741 3.40596 247.227 3.01596C247.712 2.6173 248.319 2.41797 249.047 2.41797C249.982 2.41797 250.849 2.68664 251.646 3.22396L250.892 4.58896C250.156 4.15563 249.527 3.93897 249.007 3.93897C248.522 3.93897 248.279 4.10796 248.279 4.44597C248.279 4.67996 248.678 4.9313 249.475 5.19996C249.571 5.23464 249.644 5.26063 249.696 5.27797C249.93 5.35597 250.129 5.42963 250.294 5.49896C250.459 5.5683 250.645 5.66364 250.854 5.78497C251.061 5.9063 251.226 6.0363 251.347 6.17497C251.477 6.30497 251.585 6.47396 251.673 6.68196C251.759 6.88997 251.802 7.11964 251.802 7.37097C251.802 8.11631 251.555 8.67966 251.061 9.061C250.576 9.43363 249.935 9.61999 249.138 9.61999Z" fill="white"/>
</g>
<defs>
<clipPath id="clip0_7467_28790">
<rect width="252" height="28" fill="white"/>
</clipPath>
</defs>
</svg>
